<svg xmlns="http://www.w3.org/2000/svg" viewBox="-300.0 -300.0 600 600" width="600" height="600">
  <path d="M -60.00 -175.00 L 8.00 -159.00 L 31.00 -151.00 L 39.00 -145.00 L 39.00 -143.00 L 50.00 -131.00 L 50.00 -129.00 L 41.00 -122.00 L 23.00 -139.00 L -37.00 -149.00 L -59.00 -175.00 Z" fill="#C47A46" />
  <path d="M -64.00 -149.00 L 16.00 -135.00 L 9.00 -131.00 L -32.00 -117.00 L -64.00 -148.00 Z" fill="#C47A46" />
  <path d="M 22.00 -132.00 L 34.00 -122.00 L 27.00 -122.00 L 23.00 -127.00 L 10.00 -127.00 L 22.00 -131.00 Z" fill="#C47A46" />
  <path d="M 54.00 -127.00 L 111.00 -116.00 L 50.00 -103.00 L 42.00 -111.00 L 44.00 -112.00 L 85.00 -113.00 L 85.00 -115.00 L 42.00 -115.00 L 41.00 -116.00 L 43.00 -118.00 L 54.00 -126.00 Z" fill="#C47A46" />
  <path d="M -5.00 -122.00 L 11.00 -122.00 L 13.00 -117.00 L 17.00 -115.00 L 33.00 -115.00 L -3.00 -88.00 L -28.00 -113.00 L -5.00 -121.00 Z" fill="#C47A46" />
  <path d="M 35.00 -110.00 L 37.00 -110.00 L 46.00 -101.00 L 46.00 -99.00 L 35.00 -91.00 L 29.00 -85.00 L 29.00 -82.00 L 55.00 -55.00 L 62.00 -34.00 L 63.00 -22.00 L 2.00 -83.00 L 4.00 -87.00 L 35.00 -109.00 Z" fill="#C47A46" />
  <path d="M -32.00 -109.00 L -30.00 -109.00 L 13.00 -65.00 L 12.00 -64.00 L 8.00 -67.00 L -9.00 -71.00 L -25.00 -70.00 L -37.00 -66.00 L -32.00 -74.00 L -32.00 -108.00 Z" fill="#C47A46" />
  <path d="M -21.00 -66.00 L -5.00 -66.00 L 5.00 -63.00 L 16.00 -57.00 L 25.00 -48.00 L -64.00 40.00 L -64.00 -19.00 L -59.00 -37.00 L -53.00 -47.00 L -43.00 -57.00 L -32.00 -63.00 L -21.00 -65.00 Z" fill="#C47A46" />
  <path d="M 27.00 -44.00 L 29.00 -44.00 L 35.00 -28.00 L 34.00 -6.00 L 23.00 15.00 L 9.00 29.00 L 7.00 29.00 L 3.00 35.00 L 1.00 35.00 L 2.00 -19.00 L 27.00 -43.00 Z" fill="#C47A46" />
  <path d="M 35.00 -43.00 L 63.00 -15.00 L 60.00 5.00 L 52.00 23.00 L 19.00 65.00 L 39.00 -7.00 L 40.00 -25.00 L 35.00 -42.00 Z" fill="#C47A46" />
  <path d="M -4.00 -13.00 L -2.00 6.00 L -3.00 11.00 L -40.00 48.00 L -42.00 48.00 L -43.00 51.00 L -49.00 55.00 L -50.00 58.00 L -62.00 70.00 L -64.00 70.00 L -64.00 47.00 L -4.00 -12.00 Z" fill="#C47A46" />
  <path d="M -4.00 17.00 L -2.00 32.00 L -3.00 41.00 L -6.00 42.00 L -64.00 100.00 L -64.00 77.00 L -4.00 18.00 Z" fill="#C47A46" />
  <path d="M 25.00 18.00 L 26.00 23.00 L 12.00 75.00 L 6.00 82.00 L 5.00 86.00 L 1.00 89.00 L 2.00 42.00 L 25.00 19.00 Z" fill="#C47A46" />
  <path d="M -3.00 46.00 L -2.00 88.00 L -4.00 88.00 L -20.00 64.00 L -3.00 47.00 Z" fill="#C47A46" />
  <path d="M 23.00 67.00 L 41.00 125.00 L 39.00 131.00 L 25.00 146.00 L 14.00 81.00 L 16.00 76.00 L 23.00 68.00 Z" fill="#C47A46" />
  <path d="M -25.00 68.00 L -22.00 69.00 L -15.00 79.00 L -25.00 144.00 L -27.00 146.00 L -42.00 128.00 L -25.00 69.00 Z" fill="#C47A46" />
  <path d="M -12.00 85.00 L -4.00 95.00 L -2.00 101.00 L -2.00 174.00 L -4.00 174.00 L -17.00 156.00 L -22.00 152.00 L -12.00 86.00 Z" fill="#C47A46" />
  <path d="M 10.00 85.00 L 12.00 89.00 L 21.00 145.00 L 21.00 152.00 L 19.00 155.00 L 14.00 159.00 L 3.00 174.00 L 1.00 172.00 L 1.00 102.00 L 2.00 96.00 L 10.00 86.00 Z" fill="#C47A46" />
</svg>